HIERARCHY
ROOT Hips
{
	OFFSET -3.958830 18.904000 13.208200
	CHANNELS 6 Xposition Yposition Zposition Zrotation Yrotation Xrotation 
	JOINT LHipJoint
	{
		OFFSET 0.000000 0.000000 0.000000
		CHANNELS 3 Zrotation Yrotation Xrotation
		JOINT LeftUpLeg
		{
			OFFSET 1.800000 -1.400000 0.085000
			CHANNELS 3 Zrotation Yrotation Xrotation
			JOINT LeftLeg
			{
				OFFSET 2.215000 -6.000000 0.000000
				CHANNELS 3 Zrotation Yrotation Xrotation
				JOINT LeftFoot
				{
					OFFSET 2.500000 -6.900000 0.000000
					CHANNELS 3 Zrotation Yrotation Xrotation
					JOINT LeftToeBase
					{
						OFFSET 0.200000 -0.500000 1.950000
						CHANNELS 3 Zrotation Yrotation Xrotation
						End Site
						{
							OFFSET 0.000000 0.000000 0.000000
						}
					}
				}
			}
		}
	}
	JOINT RHipJoint
	{
		OFFSET 0.000000 0.000000 0.000000
		CHANNELS 3 Zrotation Yrotation Xrotation
		JOINT RightUpLeg
		{
			OFFSET -1.800000 -1.400000 0.085000
			CHANNELS 3 Zrotation Yrotation Xrotation
			JOINT RightLeg
			{
				OFFSET -2.215000 -6.000000 0.000000
				CHANNELS 3 Zrotation Yrotation Xrotation
				JOINT RightFoot
				{
					OFFSET -2.500000 -6.900000 0.000000
					CHANNELS 3 Zrotation Yrotation Xrotation
					JOINT RightToeBase
					{
						OFFSET -0.200000 -0.500000 1.950000
						CHANNELS 3 Zrotation Yrotation Xrotation
						End Site
						{
							OFFSET 0.000000 0.000000 0.000000
						}
					}
				}
			}
		}
	}
	JOINT LowerBack
	{
		OFFSET 0.000000 0.000000 0.000000
		CHANNELS 3 Zrotation Yrotation Xrotation
		JOINT Spine
		{
			OFFSET -0.087000 1.940000 -0.288900
			CHANNELS 3 Zrotation Yrotation Xrotation
			JOINT Spine1
			{
				OFFSET 0.000000 1.950000 0.060000
				CHANNELS 3 Zrotation Yrotation Xrotation
				JOINT Neck
				{
					OFFSET 0.000000 0.000000 0.000000
					CHANNELS 3 Zrotation Yrotation Xrotation
					JOINT Neck1
					{
						OFFSET 0.000000 1.600000 0.340000
						CHANNELS 3 Zrotation Yrotation Xrotation
						JOINT Head
						{
							OFFSET 0.000000 1.667000 -0.240000
							CHANNELS 3 Zrotation Yrotation Xrotation
							End Site
							{
								OFFSET 0.000000 0.000000 0.000000
							}
						}
					}
				}
				JOINT LeftShoulder
				{
					OFFSET 0.000000 0.000000 0.000000
					CHANNELS 3 Zrotation Yrotation Xrotation
					JOINT LeftArm
					{
						OFFSET 2.700000 1.550000 -0.730000
						CHANNELS 3 Zrotation Yrotation Xrotation
						JOINT LeftForeArm
						{
							OFFSET 5.450000 0.000000 0.000000
							CHANNELS 3 Zrotation Yrotation Xrotation
							JOINT LeftHand
							{
								OFFSET 3.450000 0.000000 0.000000
								CHANNELS 3 Zrotation Yrotation Xrotation
								JOINT LeftHandIndex1
								{
									OFFSET 0.750000 0.000000 0.000000
									CHANNELS 3 Zrotation Yrotation Xrotation
									End Site
									{
										OFFSET 0.000000 0.000000 0.000000
									}
								}
							}
						}
					}
				}
				JOINT RightShoulder
				{
					OFFSET 0.000000 0.000000 0.000000
					CHANNELS 3 Zrotation Yrotation Xrotation
					JOINT RightArm
					{
						OFFSET -2.700000 1.550000 -0.730000
						CHANNELS 3 Zrotation Yrotation Xrotation
						JOINT RightForeArm
						{
							OFFSET -5.450000 0.000000 0.000000
							CHANNELS 3 Zrotation Yrotation Xrotation
							JOINT RightHand
							{
								OFFSET -3.450000 0.000000 0.000000
								CHANNELS 3 Zrotation Yrotation Xrotation
								JOINT RightHandIndex1
								{
									OFFSET -0.750000 0.000000 0.000000
									CHANNELS 3 Zrotation Yrotation Xrotation
									End Site
									{
										OFFSET 0.000000 0.000000 0.000000
									}
								}
							}
						}
					}
				}
			}
		}
	}
}
MOTION
Frames: 13
Frame Time: 0.016667
-0.451450 17.119210 -4.244290 -1.110743 3.719029 -0.909926 -14.975613 14.068001 2.693125 8.040059 -0.592210 -23.979027 6.699289 4.166021 24.799315 -0.070439 3.693983 3.125579 0.117040 0.091550 0.030210 18.166239 -11.702651 2.650359 -8.662699 1.648150 -14.705820 0.829580 -3.442125 15.649538 0.098116 -2.901693 3.377241 0.075070 0.050830 -0.018190 -3.834887 -1.356152 -7.438551 10.510585 -1.948487 10.710929 3.193435 -1.256694 3.590482 0.929177 -10.455255 -11.228419 -20.953187 7.883224 38.922551 -3.345970 2.263300 -0.329570 -29.936152 -12.676698 8.175530 -62.831670 7.921209 -6.112339 -15.020178 -2.858658 -1.131994 -3.726665 2.971922 0.018600 0.012700 -0.054830 0.066510 28.994492 24.335062 4.500707 34.929074 28.056244 -4.036820 -11.326643 37.240178 -3.723553 2.393891 -1.332866 -0.022650 0.058370 -0.029260 0.001300 
-0.457790 17.118030 -4.251330 -1.255749 2.101275 -1.530001 -14.956990 14.114214 2.627785 8.451385 -0.420168 -23.039681 6.423008 4.288930 24.761933 -0.102389 3.749866 3.098751 0.154980 0.132460 0.069240 18.184427 -11.696308 2.663806 -8.448110 1.488490 -14.075894 0.845660 -3.417539 15.039765 0.071923 -2.901596 3.368699 0.109520 0.030630 -0.015070 -3.840197 -1.424937 -7.410013 10.773084 -1.959281 10.877907 3.057266 -1.351021 5.250335 1.056242 -10.523975 -11.652363 -21.340082 8.404246 39.327233 -3.839260 2.681290 -1.383780 -30.234628 -14.375860 8.567964 -60.998003 5.787699 -4.197942 -12.155056 -2.853640 -0.808311 -3.714132 2.983865 0.038740 0.005350 -0.035880 0.063150 29.185280 25.884680 5.246698 35.414463 29.711345 -4.506632 -16.381860 40.973347 -5.925229 2.305906 -1.307109 -0.025820 0.071580 -0.038390 -0.015110 
-0.469200 17.111430 -4.246880 -1.118620 0.236988 -2.457576 -14.938402 14.174623 2.530599 8.767936 -0.264038 -21.356421 5.905234 4.499623 24.865136 -0.134281 3.864118 3.060734 0.199140 0.188980 0.110500 18.206301 -11.709257 2.631249 -8.692767 1.281180 -13.310113 1.009537 -3.536673 15.210609 0.041207 -3.000808 3.322420 0.161670 0.022280 -0.011290 -3.843878 -1.515517 -7.304230 10.754955 -2.080357 10.748333 3.070524 -1.713604 7.922341 0.928243 -10.738143 -12.160678 -22.113277 9.260058 39.341312 -4.790610 3.439790 -2.286690 -29.978801 -16.534320 9.016759 -58.081478 2.304017 -0.986767 -7.602849 -0.698449 -0.388323 -3.741278 3.004923 0.039800 0.016490 -0.026370 0.064120 29.412470 27.804158 6.308485 36.399782 32.096482 -4.641134 -24.476293 45.970018 -10.027026 2.173875 -1.236658 -0.031350 0.091490 -0.050440 -0.029240 
-0.494410 17.082490 -4.257830 -0.963514 -0.672770 -3.678431 -14.916880 14.229232 2.464239 8.908037 -0.204565 -20.052453 6.106529 4.390567 24.614604 -0.162412 3.877314 3.061647 0.236860 0.240230 0.125070 18.222016 -11.761527 2.600797 -8.803173 1.121364 -12.760185 0.842147 -3.607916 15.919027 0.017740 -3.106928 3.275681 0.206740 0.028440 -0.004600 -3.868439 -1.547272 -7.244978 10.630503 -2.044885 11.308621 2.832131 -1.782964 10.519256 0.678686 -10.783740 -12.749820 -22.385391 9.747920 39.172288 -4.645810 3.439470 -2.867830 -29.593608 -18.516438 9.621030 -53.495541 -0.412686 1.071802 -2.706104 -0.729616 -0.063101 -3.741972 3.052427 0.031170 0.027940 -0.026540 0.074020 29.697476 29.596745 7.402652 36.796944 34.574777 -4.363195 -35.032866 50.033604 -15.822157 2.037437 -1.105115 -0.029630 0.105260 -0.057830 -0.028070 
-0.508110 17.031150 -4.272030 -0.860742 -1.647730 -4.793388 -14.868401 14.200474 2.409403 9.178925 -0.265090 -19.147816 6.108567 4.380914 24.891093 -0.197317 3.971643 3.039094 0.275830 0.295290 0.147090 18.274405 -11.851712 2.560194 -8.852685 1.009398 -12.565518 0.564218 -3.675644 17.004497 0.002593 -3.236130 3.219566 0.265930 0.047060 0.002290 -3.983641 -1.380167 -7.157900 11.019929 -1.758892 11.884628 2.147370 -1.542490 12.877796 0.443109 -10.556736 -12.573943 -21.621037 9.252370 37.922226 -5.006520 3.079490 -3.844130 -28.950368 -19.454798 9.456185 -47.912406 -4.067262 2.308511 2.798968 -2.652917 -0.047866 -3.763884 3.085177 0.006040 0.057800 -0.038970 0.084300 29.469994 30.322783 7.925061 36.849841 36.767656 -3.108792 -48.856944 54.560116 -24.414672 1.846154 -0.854152 -0.036150 0.129940 -0.066650 -0.028530 
-0.507100 16.991990 -4.280080 -0.711058 -1.587605 -6.068616 -14.834517 14.193668 2.403954 9.094055 -0.411606 -18.590422 6.289847 4.307680 25.443202 -0.213736 4.058072 3.013256 0.299420 0.325420 0.158110 18.295599 -11.965437 2.514545 -9.140635 0.891241 -12.164982 0.163264 -3.771248 18.384212 -0.016347 -3.394881 3.153208 0.299730 0.056460 0.011460 -4.059220 -1.219267 -7.134501 11.413181 -1.382125 12.979986 1.442836 -1.111624 13.977949 0.503115 -10.108205 -12.056281 -20.415232 8.570510 37.412333 -5.064870 2.479600 -4.396760 -29.821881 -19.432338 8.903021 -42.656545 -6.080481 1.775122 9.112510 -5.465907 -0.498318 -3.769126 3.119873 -0.009020 0.074910 -0.047350 0.088590 30.075855 30.187749 8.085783 35.457627 37.310377 -1.715367 -65.146783 58.235090 -35.703542 1.659945 -0.467160 -0.036640 0.138080 -0.069050 -0.028390 
-0.508680 16.936170 -4.284530 -0.630762 -0.421725 -7.226182 -14.810452 14.178945 2.437889 8.922153 -0.621190 -18.877833 6.891068 4.169045 26.673980 -0.208540 4.179763 2.967514 0.314170 0.344860 0.162480 18.300153 -12.095739 2.463150 -9.523992 0.899256 -11.962719 -0.012808 -4.034103 20.835800 -0.044938 -3.638315 3.056896 0.318630 0.056350 0.015080 -4.127347 -1.008891 -7.157048 11.774389 -1.034767 14.297447 0.280187 -0.552242 14.189862 0.951109 -9.408006 -11.427201 -18.628026 7.484598 37.024838 -5.035470 1.639780 -4.894710 -31.174755 -18.892044 8.139988 -38.350118 -6.762418 0.389435 14.010715 -8.337376 -1.178333 -3.763953 3.149014 -0.018430 0.079990 -0.051360 0.092380 30.314119 29.457196 8.170807 33.292111 37.046463 0.499480 -83.177920 58.458842 -49.649812 1.636162 -0.165887 -0.033870 0.139260 -0.073620 -0.026470 
-0.509590 16.881950 -4.274540 -0.574979 1.205554 -8.303296 -14.792699 14.160201 2.431968 8.830068 -0.879077 -18.716901 7.691695 3.880005 27.672744 -0.195277 4.283367 2.935965 0.337670 0.377060 0.150230 18.312749 -12.209074 2.396380 -9.877783 0.937223 -12.127788 -0.130234 -4.405172 24.013260 -0.082801 -3.965667 2.929167 0.346200 0.070480 0.016520 -4.213239 -0.813624 -7.117150 12.154572 -0.671180 14.886123 -0.580186 -0.023532 14.318823 1.104516 -8.956679 -10.522222 -17.634799 6.220630 36.802054 -4.123690 -0.195070 -5.261140 -31.880617 -17.880319 6.659259 -36.913581 -9.873963 -1.717014 24.517737 -13.700508 -3.401829 -3.761308 3.184490 -0.039380 0.082470 -0.063640 0.110630 30.424430 28.110219 8.455757 30.825268 36.080772 3.092388 -99.149292 56.067302 -64.677277 1.872394 -0.383311 -0.024890 0.147240 -0.080870 -0.007140 
-0.510830 16.836700 -4.265680 -0.251835 2.404522 -9.636569 -14.783381 14.147736 2.411650 8.794023 -1.054705 -17.969910 7.741094 3.871365 28.754619 -0.180120 4.456051 2.879085 0.370140 0.417160 0.143160 18.319262 -12.307974 2.324607 -10.484109 0.819221 -11.934419 -0.411637 -4.677981 26.192816 -0.124404 -4.238258 2.821517 0.379260 0.084170 0.017810 -4.267641 -0.663153 -7.065502 12.282317 -0.017698 15.393668 -1.401178 0.835938 14.767087 1.207230 -8.602724 -9.516433 -17.262940 5.008445 37.563109 -2.798590 -2.466630 -5.912660 -32.663856 -17.212710 4.966948 -36.891107 -15.361651 -3.500450 39.427029 -19.484860 -7.866368 -3.759283 3.161037 -0.049490 0.076970 -0.068840 0.128780 30.669835 27.210940 8.683791 27.821341 34.669940 3.608178 -110.457048 52.602826 -75.328764 2.067027 -0.898062 -0.015800 0.166930 -0.085790 0.013120 
-0.502670 16.786230 -4.255550 0.109603 4.151835 -11.270054 -14.783191 14.119924 2.397016 8.553415 -1.331210 -17.310055 8.153380 3.711332 30.226596 -0.163112 4.662395 2.809664 0.416990 0.480240 0.145220 18.321272 -12.426874 2.225894 -11.298571 0.580298 -11.309620 -0.866705 -5.057658 28.889465 -0.195856 -4.626187 2.672266 0.428640 0.097330 0.018100 -4.320197 -0.488714 -7.017355 12.217805 0.572064 16.099981 -2.619379 1.678540 15.808365 1.502702 -7.367414 -8.451312 -15.184851 3.494819 38.329555 -0.885410 -4.313620 -6.940840 -33.517708 -17.560727 3.761971 -36.123908 -22.020090 -3.902425 56.653184 -27.691449 -15.997627 -3.725213 3.044441 -0.056950 0.073110 -0.067960 0.153070 30.615720 26.503942 8.531306 24.829198 33.378126 2.915379 -118.172949 48.817213 -80.737793 2.118875 -1.264906 -0.009020 0.190390 -0.100930 0.030780 
-0.501310 16.733670 -4.226270 0.127663 6.539574 -12.937599 -14.832048 14.162053 2.320600 8.589580 -1.329218 -16.053136 8.975750 3.367652 30.684839 -0.154774 4.751040 2.782862 0.449670 0.525960 0.150600 18.275129 -12.486690 2.162597 -12.028468 0.377130 -10.384620 -0.599193 -5.713997 31.427117 -0.275978 -5.062849 2.510571 0.463020 0.100640 0.022150 -4.259085 -0.461313 -6.966146 11.640093 1.026602 16.671475 -2.898674 2.327337 16.941699 1.914946 -6.053079 -7.602679 -12.929566 1.567296 38.785693 0.147030 -5.923530 -7.945510 -33.796251 -17.698377 3.180895 -36.299486 -26.862177 -2.276342 69.158194 -33.924433 -24.230176 -3.677587 2.897067 -0.064750 0.071860 -0.065070 0.164200 29.984536 25.674042 7.995518 21.435658 32.008031 1.902578 -123.567095 45.928216 -83.743503 2.128758 -1.464605 0.000290 0.203030 -0.110140 0.041810 
-0.501170 16.685220 -4.207900 0.479743 7.011781 -14.501348 -14.853110 14.209374 2.266935 8.877171 -1.211612 -14.818174 9.075665 3.445360 31.622628 -0.131774 4.971339 2.717877 0.454650 0.534610 0.145580 18.249161 -12.560436 2.100844 -12.531343 0.146881 -9.272324 -1.305416 -5.698677 32.233505 -0.306262 -5.233501 2.457080 0.479220 0.122310 0.022650 -4.204327 -0.431180 -6.917017 10.994492 1.384770 17.537424 -3.456099 3.000884 18.323528 2.113912 -5.244069 -7.312172 -11.530025 0.422264 38.662129 0.836880 -6.668480 -8.394750 -33.243835 -18.561879 3.153999 -34.198831 -29.805679 -0.697940 81.070475 -38.042572 -32.994779 -3.665788 2.758990 -0.070530 0.083660 -0.075250 0.170110 28.976408 25.783485 7.904907 17.992059 30.949421 0.937277 -127.538235 43.724468 -85.643223 2.132769 -1.567811 -0.008340 0.222020 -0.105680 0.046450 
-0.500530 16.645620 -4.196680 0.895631 6.616069 -16.133237 -14.854877 14.262094 2.232658 9.357065 -1.106831 -13.624387 8.715178 3.782660 33.022454 -0.094560 5.294379 2.614456 0.465210 0.552780 0.141530 18.244296 -12.619139 2.025797 -12.893417 -0.015249 -8.226109 -2.496721 -5.498865 33.445118 -0.340371 -5.439330 2.389749 0.504830 0.147060 0.029970 -4.175576 -0.470711 -6.867992 10.489819 1.323496 18.598672 -4.286410 3.306542 19.817359 1.978781 -4.853050 -7.101850 -10.805219 -0.071212 37.640922 1.099340 -6.587280 -8.485360 -32.418333 -20.593216 3.202478 -29.574239 -33.103134 0.833713 92.769984 -37.761523 -39.786740 -3.711354 2.738824 -0.092380 0.109680 -0.093770 0.178690 28.285768 26.895774 7.985109 13.877366 30.626866 0.146731 -130.362266 42.085092 -86.192357 2.135920 -1.635557 -0.013760 0.227770 -0.104910 0.049890 
